:SAMPLES-PER-SECOND 30
:FULLY-SPECIFIED
:DEGREES
557
root  34.863 35.7082 1.14736 176.039 78.0937 95.6511
RightUpLeg  -103.637 -13.9261 -3.35746
RightLeg  18.7407 -2.4802 -0.252917
RightFoot  4.72328 -0.0754778 0.772167
RightToes  3.49245e-010 0 -3.6325e-017
Spine  -104.518 -10.9277 -7.70462
Spine1  42.4036 -6.01125 6.53796
HEad  -20.6486 -2.93444 7.88466
LeftShoulder1  0.553247 1.94295 -29.3074
LeftArm  2.02124 -20.1554 -52.1017
LeftForeArm  23.575 -9.60058 -9.45537
LeftHand  -0.0276053 9.06892 0.551654
RightShoulder  -0.529437 -5.02121 28.064
RightArm  2.40283 -5.28222 37.1256
RightForeArm  -2.31332 6.7677 2.95031
RightHand  -0.344547 2.04937 -5.57734
LeftUpLeg  -78.946 -6.8556 -5.38012
LeftLeg  25.2281 1.16502 0.933823
LeftFoot  -11.6868 0.0391935 -9.96879
LeftToes  -5.36635e-011 -6.70219e-011 5.24975e-011
558
root  33.8504 35.6648 0.977973 -174.486 78.6738 106.335
RightUpLeg  -102.866 -13.6779 -2.38151
RightLeg  16.5998 -3.52134 -0.217021
RightFoot  7.39069 -0.0681139 0.716327
RightToes  3.49245e-010 0 -3.6325e-017
Spine  -103.538 -9.46952 -6.49287
Spine1  42.3289 -5.10053 5.47153
HEad  -22.2825 -2.84952 9.28652
LeftShoulder1  0.523242 1.99997 -28.6844
LeftArm  8.69896 -23.219 -55.1621
LeftForeArm  20.3302 -14.3935 -8.03894
LeftHand  -0.0341698 7.14374 0.392999
RightShoulder  -0.435299 -4.7668 27.5394
RightArm  1.93337 -3.85735 39.2327
RightForeArm  -0.275329 7.58755 2.89385
RightHand  -0.266822 2.55457 -4.10018
LeftUpLeg  -76.4898 -6.37217 -3.39919
LeftLeg  23.9033 -0.472862 0.0989423
LeftFoot  -12.3206 -0.0134392 -10.1694
LeftToes  -5.36635e-011 -6.70219e-011 5.24975e-011
559
root  32.814 35.6122 0.809234 -165.468 78.024 116.042
RightUpLeg  -102.163 -14.4832 -2.74689
RightLeg  14.2217 -5.49728 -0.311967
RightFoot  10.1572 -0.116467 0.984294
RightToes  3.49245e-010 0 -3.6325e-017
Spine  -102.875 -9.22814 -6.23029
Spine1  41.9899 -4.34546 4.81277
HEad  -22.7181 -4.21671 9.93226
LeftShoulder1  0.614817 1.71895 -28.3156
LeftArm  17.412 -25.8744 -58.2294
LeftForeArm  14.6297 -19.3412 -5.87081
LeftHand  -0.0139387 6.93072 1.39848
RightShoulder  -0.409775 -4.70428 27.1667
RightArm  2.25609 -2.36694 40.9668
RightForeArm  0.432689 8.50001 3.16182
RightHand  -0.303098 2.20404 -4.82616
LeftUpLeg  -74.7472 -7.00627 -1.52858
LeftLeg  21.7711 -0.566727 0.0802696
LeftFoot  -14.1692 -0.128862 -8.82284
LeftToes  -5.36635e-011 -6.70219e-011 5.24975e-011
560
root  31.6803 35.614 0.615896 -158.832 77.048 124.995
RightUpLeg  -99.5296 -15.4509 -3.91223
RightLeg  11.5563 -8.04201 -0.299533
RightFoot  13.0578 -0.199074 1.33439
RightToes  3.49245e-010 0 -3.6325e-017
Spine  -99.7294 -8.81389 -5.99887
Spine1  40.8189 -3.37225 3.8874
HEad  -22.7503 -5.18185 11.1216
LeftShoulder1  0.64127 1.62464 -27.9938
LeftArm  20.2432 -27.8993 -61.2505
LeftForeArm  15.5953 -23.3544 -4.23214
LeftHand  -0.030595 5.33413 0.0962595
RightShoulder  -0.370209 -4.58602 27.1579
RightArm  2.56576 -0.227615 42.4517
RightForeArm  1.965 9.53075 3.36876
RightHand  -0.263703 1.44918 -4.61418
LeftUpLeg  -72.617 -7.49125 -0.679989
LeftLeg  19.7485 -0.460422 0.143345
LeftFoot  -16.9795 -0.217376 -6.41565
LeftToes  -5.36635e-011 -6.70219e-011 5.24975e-011
561
root  30.5821 35.3957 0.41433 -154.917 74.3221 126.74
RightUpLeg  -101.236 -18.8141 -6.08558
RightLeg  9.92667 -12.1214 -0.602422
RightFoot  14.9086 -0.503338 2.59939
RightToes  3.49245e-010 0 -3.6325e-017
Spine  -102.12 -12.4788 -8.09602
Spine1  42.3487 -4.78829 4.64783
HEad  -23.6793 -6.33252 12.2657
LeftShoulder1  0.690866 1.45587 -27.598
LeftArm  19.4723 -29.7069 -64.2097
LeftForeArm  18.9634 -26.5033 -4.65586
LeftHand  -0.0265664 4.75672 0.138356
RightShoulder  -0.358145 -4.55305 27.059
RightArm  3.21754 2.41506 43.8209
RightForeArm  3.20151 10.5779 3.6545
RightHand  -0.238078 1.14026 -4.3438
LeftUpLeg  -75.4342 -9.58008 -1.49027
LeftLeg  17.6321 -0.157039 0.237712
LeftFoot  -16.9282 -0.0282149 -2.60046
LeftToes  -5.36635e-011 -6.70219e-011 5.24975e-011
562
root  29.5254 35.1879 0.203597 -152.656 72.0617 126.431
RightUpLeg  -102.502 -22.1435 -8.34799
RightLeg  7.61238 -16.4223 -0.907888
RightFoot  14.5439 -1.10337 5.25909
RightToes  3.49245e-010 0 -3.6325e-017
Spine  -104.835 -15.7382 -9.97562
Spine1  43.978 -5.65495 4.94743
HEad  -23.9213 -6.67769 12.987
LeftShoulder1  0.737696 1.29765 -27.2893
LeftArm  18.0944 -30.6328 -66.4862
LeftForeArm  21.1568 -29.0726 -5.14081
LeftHand  -0.0244287 4.48445 -0.00709302
RightShoulder  -0.311677 -4.41749 26.9008
RightArm  4.11592 5.43047 45.378
RightForeArm  3.22142 11.0125 4.03276
RightHand  -0.310968 1.65447 -5.30113
LeftUpLeg  -79.7864 -12.0879 -1.19644
LeftLeg  17.8394 0.284576 0.389918
LeftFoot  -16.1012 0.0626367 -0.847254
LeftToes  -5.36635e-011 -6.70219e-011 5.24975e-011
563
root  28.4682 35.1589 0.0162382 -152.702 71.0165 126.385
RightUpLeg  -101.448 -23.6576 -9.84582
RightLeg  5.00904 -18.9426 -1.1455
RightFoot  11.5579 -1.33067 6.91252
RightToes  3.49245e-010 0 -3.6325e-017
Spine  -104.541 -16.6382 -11.3976
Spine1  44.7809 -4.93896 4.73718
HEad  -24.5567 -7.70124 13.4261
LeftShoulder1  0.73066 1.32165 -27.3368
LeftArm  17.4595 -30.9031 -67.4396
LeftForeArm  22.0218 -31.0025 -5.54919
LeftHand  -0.0223544 4.08021 0.0147645
RightShoulder  -0.279858 -4.3302 26.5649
RightArm  5.16284 8.6046 47.3392
RightForeArm  3.80592 10.8579 4.42831
RightHand  -0.33086 2.23669 -5.22414
LeftUpLeg  -81.8489 -12.7313 -2.71214
LeftLeg  19.3285 -1.83504 -0.391584
LeftFoot  -15.3762 0.0645933 -0.787012
LeftToes  -5.36635e-011 -6.70219e-011 5.24975e-011
564
root  27.4261 35.406 -0.122937 -154.398 71.802 128.741
RightUpLeg  -97.0422 -22.0469 -10.4464
RightLeg  2.3679 -18.995 -1.05794
RightFoot  6.34228 -1.0938 7.39192
RightToes  3.49245e-010 0 -3.6325e-017
Spine  -99.7671 -12.7588 -10.9983
Spine1  43.2429 -1.14557 2.85916
HEad  -24.4297 -7.67873 12.6414
LeftShoulder1  0.720457 1.36083 -27.476
LeftArm  15.8632 -29.4218 -66.4602
LeftForeArm  22.8022 -32.6219 -5.90151
LeftHand  -0.0200543 3.78528 -0.0188441
RightShoulder  -0.303057 -4.39676 26.7217
RightArm  6.61055 11.4452 49.3516
RightForeArm  4.19991 10.2839 4.99208
RightHand  -0.374595 2.03721 -6.02782
LeftUpLeg  -80.047 -11.5556 -4.68001
LeftLeg  21.1055 -3.15259 -0.996931
LeftFoot  -14.7383 0.0794812 -0.292387
LeftToes  -5.36635e-011 -6.70219e-011 5.24975e-011
